<svg width="436" height="656" viewBox="0 0 436 656" fill="none" xmlns="http://www.w3.org/2000/svg">
<path d="M328 327.616C219 381.116 1 538.116 0.999995 327.616C0.999986 117.116 219 274.116 328 327.616Z" fill="#A2BE8B" fill-opacity="0.62" stroke="#443643" stroke-width="2"/>
<path d="M328.515 329.47C289.271 444.375 246.137 709.54 97.2911 560.694C-51.5549 411.848 213.61 368.715 328.515 329.47Z" fill="#A2BE8B" fill-opacity="0.62" stroke="#443643" stroke-width="2"/>
<path d="M328.613 325.613C213.708 286.369 -51.457 243.235 97.389 94.389C246.235 -54.457 289.369 210.708 328.613 325.613Z" fill="#A2BE8B" fill-opacity="0.62" stroke="#443643" stroke-width="2"/>
<path d="M327.616 328C274.116 219 117.116 0.999989 327.616 0.999989C538.116 0.999989 381.116 219 327.616 328Z" fill="#A2BE8B" fill-opacity="0.62" stroke="#443643" stroke-width="2"/>
<path d="M327.616 328C381.116 437 538.116 655 327.616 655C117.116 655 274.116 437 327.616 328Z" fill="#A2BE8B" fill-opacity="0.62" stroke="#443643" stroke-width="2"/>
<path d="M373 327.5C373 352.066 352.863 372 328 372C303.137 372 283 352.066 283 327.5C283 302.934 303.137 283 328 283C352.863 283 373 302.934 373 327.5Z" fill="#443643" stroke="#443643" stroke-width="2"/>
</svg>
