<svg width="319" height="151" viewBox="0 0 319 151" fill="none" xmlns="http://www.w3.org/2000/svg">
<path d="M6.304 44.12H70.56V56.536H67.872C67.872 51.928 67.0187 49.24 65.312 48.472H44.32V113.752C45.088 115.459 47.776 116.312 52.384 116.312V119H24.48V116.312C29.088 116.312 31.776 115.459 32.544 113.752V48.472H11.552C9.84533 49.24 8.992 51.928 8.992 56.536H6.304V44.12ZM78.251 119V116.312C82.859 116.312 85.547 115.459 86.315 113.752V49.368C85.547 47.6613 82.859 46.808 78.251 46.808V44.12H107.179C117.76 44.12 125.782 46.04 131.243 49.88C136.704 53.72 139.435 58.1147 139.435 63.064C139.435 67.7573 138.027 71.896 135.211 75.48C132.395 78.9787 128.214 81.5387 122.667 83.16L139.691 113.624C140.544 115.416 143.36 116.312 148.139 116.312V119H142.635C136.662 119 132.779 118.659 130.987 117.976C129.195 117.293 127.403 115.416 125.611 112.344L110.123 84.952H98.091V113.752C98.859 115.459 101.547 116.312 106.155 116.312V119H78.251ZM98.091 48.472V80.6H108.715C115.542 80.6 120.235 79.2773 122.795 76.632C125.355 73.9867 126.635 69.5067 126.635 63.192C126.635 58.4987 125.184 54.872 122.283 52.312C119.467 49.752 114.432 48.472 107.179 48.472H98.091ZM189.764 115.928C195.481 115.928 200.26 113.539 204.1 108.76C208.025 103.981 209.988 97.6667 209.988 89.816V49.368C209.22 47.6613 206.532 46.808 201.924 46.808V44.12H222.404V46.808C217.796 46.808 215.108 47.6613 214.34 49.368V87.256C214.34 98.3493 211.865 106.627 206.916 112.088C202.052 117.549 195.908 120.28 188.484 120.28C168.004 120.28 157.764 109.272 157.764 87.256V49.368C156.996 47.6613 154.308 46.808 149.7 46.808V44.12H177.604V46.808C172.996 46.808 170.308 47.6613 169.54 49.368V89.048C169.54 97.496 171.417 104.109 175.172 108.888C178.927 113.581 183.791 115.928 189.764 115.928ZM231.001 119V116.312C235.609 116.312 238.297 115.459 239.065 113.752V49.368C238.297 47.6613 235.609 46.808 231.001 46.808V44.12H282.585V56.536H279.897C279.897 51.928 279.044 49.24 277.337 48.472H250.841V77.912H268.761C270.468 77.144 271.321 74.456 271.321 69.848H274.009V90.328H271.321C271.321 85.72 270.468 83.032 268.761 82.264H250.841V114.648H280.025C282.158 113.709 284.078 111.021 285.785 106.584H288.345L285.273 119H231.001ZM299.204 117.976C297.668 116.355 296.9 114.52 296.9 112.472C296.9 110.424 297.583 108.589 298.948 106.968C300.399 105.261 302.233 104.408 304.452 104.408C306.415 104.408 308.207 105.176 309.828 106.712C311.449 108.248 312.26 110.04 312.26 112.088C312.26 114.136 311.535 116.013 310.084 117.72C308.633 119.427 306.799 120.28 304.58 120.28C302.617 120.28 300.825 119.512 299.204 117.976Z" fill="#443643"/>
<path d="M2.304 40.12H66.56V52.536H63.872C63.872 47.928 63.0187 45.24 61.312 44.472H40.32V109.752C41.088 111.459 43.776 112.312 48.384 112.312V115H20.48V112.312C25.088 112.312 27.776 111.459 28.544 109.752V44.472H7.552C5.84533 45.24 4.992 47.928 4.992 52.536H2.304V40.12ZM74.251 115V112.312C78.859 112.312 81.547 111.459 82.315 109.752V45.368C81.547 43.6613 78.859 42.808 74.251 42.808V40.12H103.179C113.76 40.12 121.782 42.04 127.243 45.88C132.704 49.72 135.435 54.1147 135.435 59.064C135.435 63.7573 134.027 67.896 131.211 71.48C128.395 74.9787 124.214 77.5387 118.667 79.16L135.691 109.624C136.544 111.416 139.36 112.312 144.139 112.312V115H138.635C132.662 115 128.779 114.659 126.987 113.976C125.195 113.293 123.403 111.416 121.611 108.344L106.123 80.952H94.091V109.752C94.859 111.459 97.547 112.312 102.155 112.312V115H74.251ZM94.091 44.472V76.6H104.715C111.542 76.6 116.235 75.2773 118.795 72.632C121.355 69.9867 122.635 65.5067 122.635 59.192C122.635 54.4987 121.184 50.872 118.283 48.312C115.467 45.752 110.432 44.472 103.179 44.472H94.091ZM185.764 111.928C191.481 111.928 196.26 109.539 200.1 104.76C204.025 99.9813 205.988 93.6667 205.988 85.816V45.368C205.22 43.6613 202.532 42.808 197.924 42.808V40.12H218.404V42.808C213.796 42.808 211.108 43.6613 210.34 45.368V83.256C210.34 94.3493 207.865 102.627 202.916 108.088C198.052 113.549 191.908 116.28 184.484 116.28C164.004 116.28 153.764 105.272 153.764 83.256V45.368C152.996 43.6613 150.308 42.808 145.7 42.808V40.12H173.604V42.808C168.996 42.808 166.308 43.6613 165.54 45.368V85.048C165.54 93.496 167.417 100.109 171.172 104.888C174.927 109.581 179.791 111.928 185.764 111.928ZM227.001 115V112.312C231.609 112.312 234.297 111.459 235.065 109.752V45.368C234.297 43.6613 231.609 42.808 227.001 42.808V40.12H278.585V52.536H275.897C275.897 47.928 275.044 45.24 273.337 44.472H246.841V73.912H264.761C266.468 73.144 267.321 70.456 267.321 65.848H270.009V86.328H267.321C267.321 81.72 266.468 79.032 264.761 78.264H246.841V110.648H276.025C278.158 109.709 280.078 107.021 281.785 102.584H284.345L281.273 115H227.001ZM295.204 113.976C293.668 112.355 292.9 110.52 292.9 108.472C292.9 106.424 293.583 104.589 294.948 102.968C296.399 101.261 298.233 100.408 300.452 100.408C302.415 100.408 304.207 101.176 305.828 102.712C307.449 104.248 308.26 106.04 308.26 108.088C308.26 110.136 307.535 112.013 306.084 113.72C304.633 115.427 302.799 116.28 300.58 116.28C298.617 116.28 296.825 115.512 295.204 113.976Z" fill="white"/>
</svg>
